<svg xmlns="http://www.w3.org/2000/svg" viewBox="0 0 1600 430" role="img" aria-labelledby="title desc">
  <title id="title">shell3</title>
  <desc id="desc">A local orchestrator connects a person to Unix tools and durable workflows executed by external runners.</desc>
  <rect width="1600" height="430" rx="28" fill="#f7f2e7"/>
  <rect x="18" y="18" width="1564" height="394" rx="20" fill="none" stroke="#171717" stroke-width="4"/>

  <!-- Snail mark: Krungthep's ๑ + ï, embedded as paths so it cannot fall back. -->
  <g transform="translate(520 170)" fill="#eab308">
    <g transform="scale(.07 -.07)">
      <path d="M610 223Q542 235 501.5 288Q461 341 461 410Q461 488 516 543Q571 598 649 598Q731 598 788.5 540Q846 482 846 397Q846 215 748.5 99.5Q651-16 496-16Q342-16 234.5 113Q127 242 127 434Q127 647 278.5 785.5Q430 924 647 924Q865 924 1016 785.5Q1167 647 1167 432Q1167 213 1071 0H864V10Q920 89 954.5 205Q989 321 989 432Q989 580 893 670Q797 760 647 760Q498 760 400.5 669.5Q303 579 303 434Q303 313 360 230Q417 147 496 147Q587 147 610 223ZM653 334Q684 334 706.5 355.5Q729 377 729 408Q729 440 707 462.5Q685 485 653 485Q622 485 600 462.5Q578 440 578 408Q578 377 600 355.5Q622 334 653 334Z"/>
      <path transform="translate(1192)" d="M328 0H140V1117H328ZM506 1304H317V1499H506ZM151 1304H-38V1499H151Z"/>
    </g>
  </g>

  <text x="660" y="170" fill="#171717" font-family="ui-monospace, SFMono-Regular, Menlo, Consolas, monospace" font-size="112" font-weight="700">shell3</text>
  <text x="800" y="224" text-anchor="middle" fill="#4b4b45" font-family="system-ui, -apple-system, sans-serif" font-size="28" letter-spacing="1.5">LOCAL ORCHESTRATION · DURABLE WORKFLOWS</text>

  <g transform="translate(293 274)" font-family="ui-monospace, SFMono-Regular, Menlo, Consolas, monospace" font-size="25" fill="#171717">
    <rect width="150" height="60" rx="12" fill="#ffffff" stroke="#171717" stroke-width="3"/>
    <text x="75" y="39" text-anchor="middle">you</text>
    <path d="M162 30h45" stroke="#171717" stroke-width="4"/>
    <path d="m198 20 12 10-12 10" fill="none" stroke="#171717" stroke-width="4"/>
    <rect x="220" width="220" height="60" rx="12" fill="#f6c945" stroke="#171717" stroke-width="3"/>
    <text x="330" y="39" text-anchor="middle">orchestrator</text>
    <path d="M452 30h40" stroke="#171717" stroke-width="4"/>
    <path d="m483 20 12 10-12 10" fill="none" stroke="#171717" stroke-width="4"/>
    <rect x="505" width="190" height="60" rx="12" fill="#ffffff" stroke="#171717" stroke-width="3"/>
    <text x="600" y="39" text-anchor="middle">Unix tools</text>
    <text x="720" y="39" fill="#6b6b63">or</text>
    <rect x="765" width="250" height="60" rx="12" fill="#ffffff" stroke="#171717" stroke-width="3"/>
    <text x="890" y="39" text-anchor="middle">wrk → runners</text>
  </g>
</svg>
